<svg xmlns="http://www.w3.org/2000/svg" viewBox="0 0 100 100">
  <!-- Background -->
  <rect x="0" y="0" width="100" height="100" rx="20" ry="20" fill="#f0f4f8"/>
  
  <!-- AI Brain -->
  <path d="M30 30 Q50 20 70 30 Q80 40 70 60 Q50 70 30 60 Q20 40 30 30" fill="#4a90e2" stroke="#2171c7" stroke-width="2"/>
  <path d="M40 40 L60 40 M40 50 L60 50 M45 35 L45 55 M55 35 L55 55" stroke="#ffffff" stroke-width="2" stroke-linecap="round"/>
  
  <!-- CO2 Molecule -->
  <circle cx="35" cy="75" r="8" fill="#e74c3c"/>
  <circle cx="50" cy="75" r="6" fill="#34495e"/>
  <circle cx="65" cy="75" r="6" fill="#34495e"/>
  <line x1="35" y1="75" x2="50" y2="75" stroke="#34495e" stroke-width="2"/>
  <line x1="50" y1="75" x2="65" y2="75" stroke="#34495e" stroke-width="2"/>
  
  <!-- Tracking Elements -->
  <path d="M75 65 Q85 55 90 40" fill="none" stroke="#27ae60" stroke-width="3" stroke-linecap="round"/>
  <polygon points="90,40 84,48 96,48" fill="#27ae60"/>
  
  <!-- Pulse Effect -->
  <circle cx="50" cy="50" r="40" fill="none" stroke="#4a90e2" stroke-width="1.5" stroke-dasharray="4 2">
    <animate attributeName="r" values="40;43;40" dur="2s" repeatCount="indefinite"/>
    <animate attributeName="opacity" values="0.3;0.6;0.3" dur="2s" repeatCount="indefinite"/>
  </circle>
</svg>
